<?xml version="1.0" encoding="UTF-8"?>
<svg width="56px" height="56px" viewBox="0 0 56 56" version="1.1" xmlns="http://www.w3.org/2000/svg" xmlns:xlink="http://www.w3.org/1999/xlink">
    <!-- Generator: Sketch 47.1 (45422) - http://www.bohemiancoding.com/sketch -->
    <title>002购电管理</title>
    <desc>Created with Sketch.</desc>
    <defs>
        <circle id="path-1" cx="14.5" cy="52" r="4"></circle>
        <circle id="path-2" cx="43" cy="52" r="4"></circle>
        <polygon id="path-3" points="33 13 22 30 31 30 29 43 40 26 31 26"></polygon>
    </defs>
    <g id="Page-1" stroke="none" stroke-width="1" fill="none" fill-rule="evenodd">
        <g id="index" transform="translate(-725.000000, -1399.000000)">
            <g id="Group-9" transform="translate(0.000000, 729.000000)">
                <g id="Group-10-Copy" transform="translate(413.000000, 478.000000)">
                    <g id="Group-8" transform="translate(0.000000, 174.000000)">
                        <g id="Group-4-Copy-12" transform="translate(300.000000, 0.000000)">
                            <g id="002购电管理" transform="translate(12.000000, 18.000000)">
                                <g id="Oval-2">
                                    <use fill="#4A90E2" fill-rule="evenodd" xlink:href="#path-1"></use>
                                    <use fill-opacity="0.400000006" fill="#FFFFFF" fill-rule="evenodd" xlink:href="#path-1"></use>
                                    <circle stroke="#4A90E2" stroke-width="1" cx="14.5" cy="52" r="3.5"></circle>
                                </g>
                                <path d="M11,12.5 L11,43.5 L43.3605897,43.5 C46.9697027,43.5 50.067013,40.9294608 50.7321311,37.382164 L54.6203475,16.6450099 C54.6602265,16.4323221 54.6802949,16.2163942 54.6802949,16 C54.6802949,14.0670034 53.1132915,12.5 51.1802949,12.5 L11,12.5 Z" id="Rectangle-4" stroke="#4A90E2"></path>
                                <path d="M14,21 L24,21" id="Path-3" stroke="#4A90E2" stroke-linecap="round"></path>
                                <path d="M35,21 L51,21" id="Path-3-Copy-2" stroke="#4A90E2" stroke-linecap="round"></path>
                                <path d="M14,35 L28,35" id="Path-3-Copy-4" stroke="#4A90E2" stroke-linecap="round"></path>
                                <path d="M38,35 L48,35" id="Path-3-Copy-3" stroke="#4A90E2" stroke-linecap="round"></path>
                                <g id="Oval-2-Copy-9">
                                    <use fill="#4A90E2" fill-rule="evenodd" xlink:href="#path-2"></use>
                                    <use fill-opacity="0.400000006" fill="#FFFFFF" fill-rule="evenodd" xlink:href="#path-2"></use>
                                    <circle stroke="#4A90E2" stroke-width="1" cx="43" cy="52" r="3.5"></circle>
                                </g>
                                <g id="Path-4">
                                    <use fill="#4A90E2" fill-rule="evenodd" xlink:href="#path-3"></use>
                                    <use fill-opacity="0.400000006" fill="#FFFFFF" fill-rule="evenodd" xlink:href="#path-3"></use>
                                    <path stroke="#4A90E2" stroke-width="1" d="M32.1505536,15.2331653 L22.9190723,29.5 L31.5828056,29.5 L29.8494464,40.7668347 L39.0809277,26.5 L30.4171944,26.5 L32.1505536,15.2331653 Z"></path>
                                </g>
                                <path d="M2,2 L7,2 C9.209139,2 11,3.790861 11,6 L11,52" id="Rectangle-3" stroke="#4A90E2" stroke-linecap="round"></path>
                                <ellipse id="Oval-2-Copy-4" fill="#4A90E2" cx="2.04477612" cy="2" rx="2.01492537" ry="2"></ellipse>
                            </g>
                        </g>
                    </g>
                </g>
            </g>
        </g>
    </g>
</svg>