<?xml version="1.0" encoding="UTF-8"?>
<svg width="64px" height="64px" viewBox="0 0 64 64" version="1.1" xmlns="http://www.w3.org/2000/svg" xmlns:xlink="http://www.w3.org/1999/xlink">
    <!-- Generator: Sketch 47.1 (45422) - http://www.bohemiancoding.com/sketch -->
    <title>Group Copy</title>
    <desc>Created with Sketch.</desc>
    <defs>
        <linearGradient x1="0%" y1="0%" x2="100%" y2="100%" id="linearGradient-1">
            <stop stop-color="#000000" offset="0%"></stop>
            <stop stop-color="#000000" stop-opacity="0" offset="100%"></stop>
        </linearGradient>
    </defs>
    <g id="Page-1" stroke="none" stroke-width="1" fill="none" fill-rule="evenodd">
        <g id="index" transform="translate(-1117.000000, -869.000000)">
            <g id="Group-9" transform="translate(0.000000, 729.000000)">
                <g id="Group-10" transform="translate(413.000000, 0.000000)">
                    <g id="Group-8" transform="translate(0.000000, 120.000000)">
                        <g id="Group-4-Copy-24" transform="translate(600.000000, 0.000000)">
                            <g id="Group-3" transform="translate(20.000000, 20.000000)">
                                <g id="Group-Copy" transform="translate(84.000000, 0.000000)">
                                    <circle id="Oval" fill="#31C9D7" cx="32" cy="32" r="32"></circle>
                                    <path d="M63.9882538,32.8755456 C63.5321999,49.852979 49.852979,63.5321999 32.8755456,63.9882538 L16.4436508,47.5563492 L26.3431458,37.6568542 L16.4436508,27.7573593 L27.7573593,16.4436508 L37.6568542,26.3431458 L47.5563492,16.4436508 L63.9882535,32.8755551 Z" id="Combined-Shape" fill="url(#linearGradient-1)" opacity="0.25"></path>
                                    <path d="M37.6564137,12.4255073 C40.7811954,15.6617424 40.7811955,20.9056007 37.6564137,24.1418358 L32,30 L26.3435863,24.1418358 C23.2188046,20.9056007 23.2188046,15.6617424 26.3435863,12.4255073 C29.4640698,9.1937237 34.5316319,9.1892722 37.6564137,12.4255073 Z M12.4255073,26.3435863 C15.6617424,23.2188046 20.9056007,23.2188045 24.1418358,26.3435863 L30,32 L24.1418358,37.6564137 C20.9056007,40.7811954 15.6617424,40.7811954 12.4255073,37.6564137 C9.1937237,34.5359302 9.1892722,29.4683681 12.4255073,26.3435863 Z M26.3435863,51.5744927 C23.2188046,48.3382576 23.2188045,43.0943993 26.3435863,39.8581642 L32,34 L37.6564137,39.8581642 C40.7811954,43.0943993 40.7811954,48.3382576 37.6564137,51.5744927 C34.5359302,54.8062763 29.4683681,54.8107278 26.3435863,51.5744927 Z M51.5744927,37.6564137 C48.3382576,40.7811954 43.0943993,40.7811955 39.8581642,37.6564137 L34,32 L39.8581642,26.3435863 C43.0943993,23.2188046 48.3382576,23.2188046 51.5744927,26.3435863 C54.8062763,29.4640698 54.8107278,34.5316319 51.5744927,37.6564137 Z" id="Combined-Shape" fill="#FFFFFF" fill-rule="nonzero" transform="translate(32.000000, 32.000000) rotate(-315.000000) translate(-32.000000, -32.000000) "></path>
                                </g>
                            </g>
                        </g>
                    </g>
                </g>
            </g>
        </g>
    </g>
</svg>