<?xml version="1.0" encoding="UTF-8"?>
<svg width="64px" height="64px" viewBox="0 0 64 64" version="1.1" xmlns="http://www.w3.org/2000/svg" xmlns:xlink="http://www.w3.org/1999/xlink">
    <!-- Generator: Sketch 47.1 (45422) - http://www.bohemiancoding.com/sketch -->
    <title>logo copy 2</title>
    <desc>Created with Sketch.</desc>
    <defs>
        <linearGradient x1="0%" y1="0%" x2="100%" y2="100%" id="linearGradient-1">
            <stop stop-color="#000000" offset="0%"></stop>
            <stop stop-color="#000000" stop-opacity="0" offset="100%"></stop>
        </linearGradient>
    </defs>
    <g id="Page-1" stroke="none" stroke-width="1" fill="none" fill-rule="evenodd">
        <g id="index" transform="translate(-817.000000, -869.000000)">
            <g id="Group-9" transform="translate(0.000000, 729.000000)">
                <g id="Group-10" transform="translate(413.000000, 0.000000)">
                    <g id="Group-8" transform="translate(0.000000, 120.000000)">
                        <g id="Group-4-Copy-23" transform="translate(300.000000, 0.000000)">
                            <g id="Group-3" transform="translate(20.000000, 20.000000)">
                                <g id="logo-copy-2" transform="translate(84.000000, 0.000000)">
                                    <rect id="Rectangle" fill="#6EC71E" x="0" y="0" width="64" height="64" rx="32"></rect>
                                    <path d="M63.8122368,35.4866748 C62.1943622,50.4173663 50.3062285,62.267136 35.3578908,63.8259289 L16.6534443,45.0333022 L18.4757751,32.9954312 L24.4090327,30.6269354 L29.9737801,36.246941 L32.595524,21.8811146 L42.329574,18.6299536 L47.3852083,19.0067402 L63.8122368,35.4866748 Z" id="Combined-Shape" fill="url(#linearGradient-1)" opacity="0.25"></path>
                                    <path d="M34.4002352,17.406755 C31.5222113,19.031937 29.5997648,21.9066168 29.5997648,25.1848093 L29.5997648,38.8151884 C29.5997648,41.2696585 27.1818859,43.2593933 24.1994119,43.2593933 C21.2169379,43.2593933 18.799059,41.2696585 18.799059,38.8151884 C18.799059,37.0675612 20.0270535,35.5606502 21.8083513,34.8343274 C21.9367967,34.7814533 22.0666536,34.7327535 22.200745,34.688228 C23.3228779,34.2443641 24.2841012,33.4095103 24.6412076,32.4410799 C25.1691041,31.0106971 24.1867085,29.8502504 22.4491668,29.8502504 C22.00932,29.8530367 21.5724425,29.9215306 21.1534209,30.0533981 C18.6353264,30.7671981 16.5378553,32.3297661 15.2802196,34.3695921 C14.4456415,35.7066667 14.0025605,37.2452775 14,38.8151884 C14,43.879968 18.5746324,47.9999713 24.1994119,47.9999713 C26.0932978,48.0042973 27.9552665,47.5192763 29.5997648,46.5932427 C32.4763772,44.9666693 34.4002352,42.0933809 34.4002352,38.8151884 L34.4002352,25.1848093 C34.4002352,22.7303392 36.8167026,20.7406044 39.7991766,20.7406044 C42.7816507,20.7406044 45.1995295,22.7303392 45.1995295,25.1848093 C45.1995295,27.0061819 43.8684964,28.5715327 41.9629876,29.2588956 C40.7335817,29.6651911 39.7257793,30.5445704 39.3418545,31.5853548 C38.816781,33.0087805 39.7935307,34.1636615 41.5240149,34.1636615 C41.9213394,34.1589645 42.3160828,34.0999625 42.6969614,33.9883422 C42.7604783,33.9716452 42.8225838,33.9521652 42.8846893,33.9340767 C45.3816114,33.2174939 47.4663791,31.6604916 48.7197804,29.6290141 C49.5538977,28.2922513 49.9969518,26.7542159 50,25.1848093 C50,20.1200297 45.4239561,16.0000264 39.7991766,16.0000264 C37.9057605,15.9958788 36.0442931,16.480896 34.4002352,17.406755 Z" id="反白标志-path" fill="#FFFFFF"></path>
                                </g>
                            </g>
                        </g>
                    </g>
                </g>
            </g>
        </g>
    </g>
</svg>