<?xml version="1.0" encoding="UTF-8"?>
<svg width="64px" height="64px" viewBox="0 0 64 64" version="1.1" xmlns="http://www.w3.org/2000/svg" xmlns:xlink="http://www.w3.org/1999/xlink">
    <!-- Generator: Sketch 47.1 (45422) - http://www.bohemiancoding.com/sketch -->
    <title>Group</title>
    <desc>Created with Sketch.</desc>
    <defs>
        <linearGradient x1="0%" y1="0%" x2="100%" y2="100%" id="linearGradient-1">
            <stop stop-color="#000000" offset="0%"></stop>
            <stop stop-color="#000000" stop-opacity="0" offset="100%"></stop>
        </linearGradient>
    </defs>
    <g id="Page-1" stroke="none" stroke-width="1" fill="none" fill-rule="evenodd">
        <g id="index" transform="translate(-1417.000000, -869.000000)">
            <g id="Group-9" transform="translate(0.000000, 729.000000)">
                <g id="Group-10" transform="translate(413.000000, 0.000000)">
                    <g id="Group-8" transform="translate(0.000000, 120.000000)">
                        <g id="Group-4-Copy-25" transform="translate(900.000000, 0.000000)">
                            <g id="Group-3" transform="translate(20.000000, 20.000000)">
                                <g id="Group" transform="translate(84.000000, 0.000000)">
                                    <circle id="Oval" fill="#AB7AEE" cx="32" cy="32" r="32"></circle>
                                    <path d="M64.0065773,32.2899937 L47.8912264,16.1746427 L37.2695049,16.9339959 L35.0968957,21.9411835 L42.1206237,28.9649114 L40.6928643,30.3926708 L26.6245024,16.3243089 L23.7689838,19.1798276 L20.9553114,16.3661552 L16.6720334,20.6494332 L19.4857057,23.4631056 L16.6301871,26.3186243 L25.7746223,35.4630595 L24.3677861,34.0562233 L15.80123,42.6227794 L18.6149024,45.4364517 L16.4732634,47.5780907 L32.8989238,64.0037512 C49.9557649,63.619423 63.7035532,49.6193524 64.0065773,32.2899937 Z" id="Combined-Shape" fill="url(#linearGradient-1)" opacity="0.200000003"></path>
                                    <path d="M41.8994949,37.6568542 C41.1184464,36.8758057 41.1184464,35.6094757 41.8994949,34.8284271 C42.6805435,34.0473785 43.9468735,34.0473785 44.7279221,34.8284271 L41.8994949,32 L39.0710678,34.8284271 L41.8994949,37.6568542 L41.8994949,37.6568542 Z M27.7573593,37.6568542 C26.9763107,36.8758057 26.9763107,35.6094757 27.7573593,34.8284271 C28.5384079,34.0473785 29.8047379,34.0473785 30.5857864,34.8284271 L35.5355339,39.7781746 L32.7071068,42.6066017 L27.7573593,37.6568542 Z M19.2720779,29.1715729 L16.4436508,26.3431458 C13.7099808,23.6094757 13.7099808,19.1773209 16.4436508,16.4436508 C19.1773209,13.7099808 23.6094757,13.7099808 26.3431458,16.4436508 L36.2426407,26.3431458 C37.0236893,27.1241943 37.0236893,28.3905243 36.2426407,29.1715729 C35.4615921,29.9526215 34.1952621,29.9526215 33.4142136,29.1715729 L23.5147186,19.2720779 C22.3431458,18.1005051 20.4436508,18.1005051 19.2720779,19.2720779 C18.1005051,20.4436508 18.1005051,22.3431458 19.2720779,23.5147186 L24.9289322,29.1715729 L22.1005051,26.3431458 C22.8815536,27.1241943 22.8815536,28.3905243 22.1005051,29.1715729 C21.3194565,29.9526215 20.0531265,29.9526215 19.2720779,29.1715729 Z M29.1715729,44.7279221 L26.3431458,47.5563492 C23.6094757,50.2900192 19.1773209,50.2900192 16.4436508,47.5563492 C13.7099808,44.8226791 13.7099808,40.3905243 16.4436508,37.6568542 L26.3431458,27.7573593 C27.1241943,26.9763107 28.3905243,26.9763107 29.1715729,27.7573593 C29.9526215,28.5384079 29.9526215,29.8047379 29.1715729,30.5857864 L19.2720779,40.4852814 C18.1005051,41.6568542 18.1005051,43.5563492 19.2720779,44.7279221 C20.4436508,45.8994949 22.3431458,45.8994949 23.5147186,44.7279221 L26.3431458,41.8994949 C27.1241943,41.1184464 28.3905243,41.1184464 29.1715729,41.8994949 C29.9526215,42.6805435 29.9526215,43.9468735 29.1715729,44.7279221 L29.1715729,44.7279221 Z M37.6568542,22.1005051 C36.8758057,22.8815536 35.6094757,22.8815536 34.8284271,22.1005051 C34.0473785,21.3194565 34.0473785,20.0531265 34.8284271,19.2720779 L37.6568542,16.4436508 C40.3905243,13.7099808 44.8226791,13.7099808 47.5563492,16.4436508 C50.2900192,19.1773209 50.2900192,23.6094757 47.5563492,26.3431458 L41.8994949,32 L47.5563492,37.6568542 C50.2900192,40.3905243 50.2900192,44.8226791 47.5563492,47.5563492 C44.8226791,50.2900192 40.3905243,50.2900192 37.6568542,47.5563492 L32.7071068,42.6066017 L35.5355339,39.7781746 L40.4852814,44.7279221 C41.6568542,45.8994949 43.5563492,45.8994949 44.7279221,44.7279221 C45.8994949,43.5563492 45.8994949,41.6568542 44.7279221,40.4852814 L39.0710678,34.8284271 L37.6568542,36.2426407 C36.8758057,37.0236893 35.6094757,37.0236893 34.8284271,36.2426407 C34.0473785,35.4615921 34.0473785,34.1952621 34.8284271,33.4142136 L44.7279221,23.5147186 C45.8994949,22.3431458 45.8994949,20.4436508 44.7279221,19.2720779 C43.5563492,18.1005051 41.6568542,18.1005051 40.4852814,19.2720779 L37.6568542,22.1005051 Z" id="Combined-Shape" fill="#FFFFFF"></path>
                                </g>
                            </g>
                        </g>
                    </g>
                </g>
            </g>
        </g>
    </g>
</svg>